# PlantUML Editor

1. select template
2. write uml diagram

@startuml Bókhald
left to right direction

class Vinnuferð {
  Flugstjóri
  aðalflugþjónn
  Flugferð út
  Flugferð inn
  áfangastaður
  dags og tími brottfarar frá Íslandi
  dags og tíma brottfarar til Íslands
  updateVoyage()
  checkPilotsAndAtten()
  staffVoyage()
}


class Starfsmaður {
  nafn string [1]
  kennitala
  heimilisfang
  heimasími
  gsmsími
  netfang
  addEmployee(info)
}

class Áfangastaður {
  land
  flugvöllur
  flugtími
  fjarlægð frá Íslandi
  nafn tengiliðar
  neyðarsímanúmer tengiliðar
}



class Flugmaður {
}

class Flugþjónn {
}

class Bókari {
  recurringVoyage()
  addVoyage()
  addDestination()
  staffVoyage()
}

Vinnuferð }-- "1" Áfangastaður
Bókari o-- Vinnuferð
Bókari o-- Starfsmaður
Bókari o-- Flugmaður
Bókari o-- Flugþjónn
Starfsmaður <|-- Flugmaður
Starfsmaður <|-- Flugþjónn
Vinnuferð --{ "2. Flugmenn" Flugmaður
Vinnuferð -|| "1. Flugþjón" Flugþjónn
Bókari --- Áfangastaður
@enduml